<svg width="110" height="110" viewBox="0 0 110 110" fill="none" xmlns="http://www.w3.org/2000/svg">
<path fill-rule="evenodd" clip-rule="evenodd" d="M69.2579 49.8773C68.7837 49.8773 68.3993 50.2617 68.3993 50.7355V58.1018C68.3993 60.3512 66.5759 62.1747 64.3264 62.1747C64.3264 62.1747 60.3788 62.1747 58.323 62.1747C56.5997 62.1747 54.9179 62.7045 53.5057 63.692L51.8482 64.8513C51.557 65.0553 51.4214 65.4174 51.5075 65.7622C51.5936 66.1075 51.8837 66.3637 52.2363 66.4066C52.4291 66.4301 52.6257 66.442 52.8246 66.442C52.8246 66.442 56.0101 66.442 57.6688 66.442C58.7416 66.442 59.7884 66.772 60.6672 67.3867C61.6724 68.0899 62.9727 68.9988 63.9833 69.7062C65.2402 70.5849 66.9129 70.5849 68.1699 69.7062C69.1805 68.9988 70.4807 68.0899 71.4859 67.3867C72.3647 66.772 73.4115 66.442 74.4843 66.442C76.143 66.442 79.3285 66.442 79.3285 66.442C82.0002 66.442 84.166 64.2762 84.166 61.6049C84.166 59.4708 84.166 56.8489 84.166 54.7149C84.166 52.0431 82.0002 49.8773 79.3285 49.8773H69.2579V49.8773Z" fill="#E0DFFF"/>
<path fill-rule="evenodd" clip-rule="evenodd" d="M37.4933 63.8912C38.8648 63.8912 40.2034 64.3127 41.3269 65.0987C42.5727 65.9701 44.184 67.0969 45.4364 67.9728C46.9237 69.013 48.902 69.013 50.3889 67.9728C51.6417 67.0969 53.253 65.9701 54.4984 65.0987C55.6223 64.3127 56.9609 63.8912 58.332 63.8912C60.3878 63.8912 64.3354 63.8912 64.3354 63.8912C67.5328 63.8912 70.125 61.299 70.125 58.1016C70.125 55.4571 70.125 52.2077 70.125 49.5632C70.125 46.3658 67.5328 43.7736 64.3354 43.7736C56.6263 43.7736 39.1994 43.7736 31.4903 43.7736C28.2925 43.7736 25.7007 46.3658 25.7007 49.5632C25.7007 52.2077 25.7007 55.4571 25.7007 58.1016C25.7007 61.299 28.2925 63.8912 31.4903 63.8912C31.4903 63.8912 35.4375 63.8912 37.4933 63.8912Z" fill="#605DEC"/>
<path fill-rule="evenodd" clip-rule="evenodd" d="M55.8519 94.4025C55.547 94.4095 55.2409 94.4132 54.934 94.4132C54.6794 94.4132 54.4252 94.4108 54.1714 94.4058C53.698 94.3968 53.3058 94.7741 53.2972 95.2479C53.2881 95.7213 53.6651 96.1131 54.1389 96.1221C54.4033 96.1271 54.6683 96.1296 54.934 96.1296C55.2541 96.1296 55.573 96.1259 55.8914 96.1189C56.3648 96.1081 56.7405 95.7147 56.7298 95.2409C56.7191 94.7675 56.3257 94.3918 55.8519 94.4025V94.4025ZM50.8178 94.2006C50.2588 94.1426 49.703 94.0729 49.151 93.9918C48.6825 93.923 48.2458 94.2476 48.177 94.716C48.1082 95.1849 48.4329 95.6212 48.9013 95.6904C49.4772 95.7748 50.0573 95.8478 50.6407 95.9083C51.112 95.9569 51.5343 95.6142 51.5833 95.1429C51.6319 94.672 51.2892 94.2497 50.8178 94.2006V94.2006ZM60.8707 93.9691C60.319 94.0523 59.7637 94.124 59.2046 94.1846C58.7337 94.2353 58.3926 94.6588 58.4433 95.1297C58.4939 95.6006 58.9175 95.9417 59.3884 95.891C59.9717 95.8284 60.5514 95.7534 61.1269 95.6665C61.5954 95.5956 61.9184 95.1577 61.8475 94.6897C61.7766 94.2212 61.3391 93.8983 60.8707 93.9691V93.9691ZM45.8518 93.3618C45.3055 93.2329 44.7633 93.0928 44.2257 92.9412C43.7696 92.8131 43.2954 93.0788 43.1669 93.5349C43.0387 93.9909 43.3045 94.4656 43.7605 94.5937C44.3217 94.7519 44.8877 94.8981 45.4579 95.0324C45.9189 95.1412 46.3816 94.8553 46.4904 94.3943C46.5991 93.9333 46.3132 93.4706 45.8518 93.3618V93.3618ZM65.7919 92.8992C65.255 93.0524 64.7133 93.195 64.1674 93.326C63.7068 93.4364 63.4225 93.9003 63.5329 94.3609C63.6433 94.8215 64.1072 95.1058 64.5678 94.995C65.1376 94.8582 65.7033 94.7099 66.2636 94.5496C66.7188 94.4194 66.9833 93.944 66.8531 93.4883C66.7229 93.0331 66.2471 92.769 65.7919 92.8992V92.8992ZM41.0348 91.8935C40.51 91.6958 39.9901 91.4869 39.4763 91.2677C39.0404 91.0819 38.5357 91.2846 38.3499 91.7205C38.1641 92.1564 38.3668 92.6611 38.8027 92.8469C39.3395 93.0755 39.8817 93.2935 40.4296 93.4999C40.8729 93.6667 41.3686 93.4426 41.5354 92.9993C41.7027 92.556 41.4781 92.0604 41.0348 91.8935ZM70.1301 91.3781C69.7494 91.5376 69.3654 91.6908 68.9786 91.8383C68.5357 92.0072 68.3136 92.5033 68.4821 92.9462C68.651 93.3886 69.1475 93.6111 69.5899 93.4422C70.0942 93.2502 70.5935 93.0483 71.0879 92.8374C71.3108 92.7418 71.483 92.5568 71.5621 92.3278C71.5757 92.2878 71.5897 92.2478 71.6041 92.2079C71.7623 91.7613 71.5287 91.2702 71.0826 91.1116C70.7316 90.9872 70.3529 91.105 70.1301 91.3781ZM38.3763 88.5227C38.0558 88.0118 37.7052 87.5178 37.3257 87.0441C37.0295 86.6741 36.489 86.6144 36.119 86.9102C35.7495 87.2064 35.6898 87.7469 35.9856 88.1169C36.3238 88.5391 36.6365 88.9796 36.9224 89.4352C37.1741 89.8365 37.7044 89.9576 38.1056 89.7059C38.5069 89.4542 38.628 88.9239 38.3763 88.5227ZM72.6481 86.9135C72.2637 87.3835 71.9078 87.8738 71.5819 88.3814C71.3256 88.7797 71.4414 89.3112 71.8402 89.5671C72.2386 89.8233 72.7701 89.7075 73.0259 89.3087C73.3168 88.8564 73.634 88.4197 73.9768 88.0007C74.2767 87.634 74.2227 87.0927 73.856 86.7927C73.4894 86.4928 72.948 86.5468 72.6481 86.9135V86.9135ZM34.7525 84.4943C34.2754 84.119 33.7781 83.7729 33.264 83.4569C32.8607 83.2089 32.3317 83.3354 32.0837 83.7387C31.8352 84.1424 31.9617 84.6714 32.365 84.9194C32.8236 85.2012 33.2665 85.5094 33.692 85.8439C34.0645 86.1365 34.6046 86.0718 34.8971 85.6993C35.19 85.3269 35.1249 84.7868 34.7525 84.4943V84.4943ZM76.7474 83.37C76.2299 83.6806 75.7293 84.0213 75.2481 84.3913C74.8724 84.6801 74.802 85.2194 75.0908 85.5947C75.3796 85.9704 75.9189 86.0409 76.2942 85.7521C76.723 85.4225 77.1696 85.1184 77.6307 84.842C78.0369 84.5981 78.1687 84.0703 77.9252 83.6641C77.6813 83.2579 77.1536 83.1261 76.7474 83.37V83.37ZM31.8896 82.417C32.089 81.825 32.2287 81.2058 32.3004 80.566C32.3531 80.0951 32.0136 79.6703 31.5431 79.6172C31.0722 79.5645 30.6471 79.9039 30.5943 80.3744C30.5362 80.8911 30.4242 81.3912 30.2631 81.8687C30.1119 82.3178 30.3533 82.8051 30.8024 82.9563C31.251 83.1075 31.7384 82.8661 31.8896 82.417ZM77.5503 80.3913C77.6096 81.0328 77.7365 81.6549 77.924 82.2502C78.0665 82.7021 78.549 82.953 79.0009 82.8109C79.4525 82.6684 79.7038 82.1859 79.5612 81.7344C79.41 81.2536 79.3074 80.7514 79.2596 80.2335C79.216 79.7618 78.7974 79.4141 78.3257 79.4578C77.8539 79.5014 77.5066 79.92 77.5503 80.3913V80.3913ZM31.9275 76.8161C31.7318 76.208 31.4727 75.6275 31.1579 75.0837C30.9206 74.6738 30.3949 74.5333 29.985 74.7706C29.5751 75.0079 29.4346 75.5332 29.6719 75.9431C29.9261 76.3827 30.1354 76.8511 30.2936 77.3422C30.4386 77.7933 30.9227 78.0414 31.3734 77.8963C31.8245 77.7513 32.0729 77.2672 31.9275 76.8161ZM78.7999 74.9325C78.4744 75.4706 78.2037 76.0457 77.9961 76.6497C77.842 77.0975 78.0805 77.5865 78.5288 77.7406C78.9766 77.8943 79.4652 77.6557 79.6193 77.2079C79.787 76.7201 80.0057 76.2558 80.2686 75.8212C80.5137 75.4158 80.3835 74.888 79.9786 74.6425C79.5732 74.3973 79.045 74.5275 78.7999 74.9325ZM28.63 72.2905C28.1191 71.9221 27.5675 71.6066 26.9841 71.3511C26.5499 71.1616 26.0435 71.3598 25.8536 71.7936C25.6637 72.2278 25.8623 72.7342 26.2961 72.9241C26.7678 73.1305 27.2132 73.3855 27.6264 73.683C28.0108 73.9602 28.5476 73.8729 28.8244 73.4885C29.1013 73.1041 29.0144 72.5673 28.63 72.2905V72.2905ZM83.0458 71.2823C82.4566 71.5262 81.8996 71.8311 81.3814 72.1895C80.992 72.459 80.8944 72.9937 81.1638 73.3835C81.4333 73.7732 81.968 73.8708 82.3578 73.6014C82.7763 73.3122 83.2266 73.0654 83.7025 72.8685C84.14 72.6872 84.3485 72.185 84.1672 71.747C83.9859 71.3095 83.4833 71.1015 83.0458 71.2823ZM19.4184 72.1871C19.1737 71.6848 18.9389 71.176 18.7151 70.6619C18.526 70.2277 18.0197 70.0283 17.5855 70.2178C17.1513 70.4069 16.9523 70.9128 17.1414 71.347C17.375 71.8838 17.6197 72.4149 17.8755 72.9393C18.0828 73.3649 18.5969 73.5425 19.0229 73.3348C19.4489 73.1272 19.626 72.613 19.4184 72.1871V72.1871ZM91.215 70.5193C90.993 71.0347 90.7606 71.5439 90.5175 72.0474C90.3116 72.4742 90.4908 72.9879 90.9176 73.1935C91.3444 73.3995 91.8577 73.2203 92.0637 72.7935C92.3171 72.2678 92.5598 71.7363 92.7913 71.1987C92.9787 70.7632 92.7777 70.2581 92.3426 70.0707C91.9076 69.8832 91.4021 70.0843 91.215 70.5193ZM88.6315 70.8691C88.0275 70.7187 87.3992 70.6298 86.7541 70.6096C86.2807 70.5943 85.884 70.9668 85.8691 71.4401C85.8539 71.9135 86.2263 72.3102 86.6997 72.3251C87.2213 72.342 87.7288 72.4136 88.217 72.5348C88.6768 72.6493 89.1428 72.3687 89.2569 71.9094C89.3714 71.4496 89.0908 70.9836 88.6315 70.8691V70.8691ZM23.2894 70.6054C22.6434 70.6137 22.0139 70.6903 21.4075 70.8283C20.9456 70.9338 20.6564 71.394 20.7615 71.8558C20.8669 72.3177 21.3271 72.6073 21.789 72.5022C22.2792 72.3906 22.7884 72.3288 23.3104 72.3222C23.7842 72.3164 24.1641 71.9271 24.1583 71.4533C24.1521 70.9795 23.7628 70.5997 23.2894 70.6054V70.6054ZM17.5072 67.5279C17.3292 66.9985 17.1616 66.4642 17.0054 65.9249C16.8736 65.47 16.3973 65.2076 15.9421 65.3394C15.4872 65.4713 15.2248 65.9475 15.3566 66.4028C15.5198 66.9655 15.6945 67.5234 15.8807 68.0759C16.0319 68.5249 16.5193 68.7663 16.9679 68.6151C17.417 68.4639 17.6588 67.977 17.5072 67.5279V67.5279ZM92.9058 65.7757C92.7517 66.3154 92.5865 66.8506 92.4102 67.3808C92.2607 67.8303 92.5041 68.3165 92.9536 68.466C93.4035 68.6156 93.8896 68.3717 94.0392 67.9222C94.2229 67.3689 94.3956 66.8106 94.5562 66.247C94.6864 65.7914 94.4219 65.316 93.9667 65.1862C93.511 65.056 93.0356 65.3205 92.9058 65.7757V65.7757ZM16.2099 62.662C16.1011 62.1144 16.0035 61.5632 15.9178 61.0078C15.8453 60.5398 15.4065 60.2185 14.9385 60.291C14.4701 60.3631 14.1487 60.8023 14.2212 61.2703C14.311 61.8499 14.4128 62.4255 14.5265 62.9969C14.6188 63.4612 15.0707 63.7636 15.5354 63.6713C16.0002 63.5786 16.3022 63.1267 16.2099 62.662V62.662ZM93.9741 60.8546C93.8901 61.4099 93.7949 61.962 93.6882 62.5095C93.5975 62.9747 93.9016 63.4258 94.3667 63.5164C94.8319 63.6066 95.2826 63.3026 95.3732 62.8379C95.4844 62.266 95.5841 61.6901 95.6715 61.11C95.7419 60.6416 95.4189 60.2041 94.9505 60.1336C94.4821 60.0632 94.0445 60.3861 93.9741 60.8546ZM15.5457 57.6691C15.5078 57.1129 15.4811 56.5535 15.4662 55.9907C15.4539 55.5173 15.0592 55.1428 14.5854 55.1556C14.112 55.168 13.7375 55.5626 13.7503 56.036C13.7656 56.6227 13.7936 57.2064 13.8331 57.7869C13.8657 58.2595 14.2756 58.6167 14.7481 58.5841C15.2211 58.552 15.5783 58.1417 15.5457 57.6691V57.6691ZM94.4059 55.8358C94.3931 56.3981 94.3688 56.9576 94.3325 57.5142C94.302 57.9872 94.6613 58.3959 95.1338 58.4263C95.6064 58.4568 96.0151 58.098 96.0456 57.625C96.0835 57.0445 96.109 56.4612 96.1222 55.8741C96.1325 55.4007 95.7568 55.0077 95.2834 54.997C94.8096 54.9863 94.4166 55.362 94.4059 55.8358V55.8358ZM15.5181 52.6309C15.5507 52.0694 15.5948 51.5112 15.6504 50.9558C15.6974 50.4845 15.3529 50.0635 14.8816 50.0165C14.4103 49.9691 13.9893 50.3135 13.9423 50.7848C13.8842 51.3641 13.8381 51.9466 13.8043 52.5325C13.7771 53.0054 14.1392 53.4112 14.6122 53.4384C15.0851 53.4656 15.491 53.1039 15.5181 52.6309V52.6309ZM94.2023 50.8017C94.26 51.3563 94.3062 51.9145 94.3408 52.476C94.37 52.949 94.7775 53.3091 95.25 53.2802C95.723 53.251 96.0831 52.8435 96.0542 52.3706C96.0184 51.7851 95.9698 51.2026 95.9096 50.6238C95.8606 50.1529 95.4383 49.8101 94.967 49.8591C94.4961 49.9081 94.1533 50.3304 94.2023 50.8017ZM16.1271 47.6311C16.2305 47.079 16.345 46.5307 16.4715 45.9869C16.5786 45.5254 16.2906 45.064 15.8292 44.9569C15.3678 44.8498 14.9063 45.1378 14.7992 45.5992C14.6674 46.1669 14.5475 46.7387 14.4396 47.3151C14.3526 47.7806 14.6596 48.2293 15.1251 48.3166C15.5911 48.404 16.0397 48.0966 16.1271 47.6311V47.6311ZM93.3615 45.8361C93.49 46.3791 93.607 46.927 93.7125 47.4787C93.8015 47.9438 94.2514 48.2491 94.7169 48.1601C95.182 48.0711 95.4873 47.6212 95.3983 47.1561C95.2883 46.5801 95.166 46.0087 95.0321 45.4414C94.9233 44.9804 94.4607 44.6945 93.9996 44.8032C93.5386 44.912 93.2527 45.3751 93.3615 45.8361V45.8361ZM17.37 42.7507C17.5431 42.2172 17.7272 41.6882 17.9225 41.1646C18.0877 40.7209 17.8615 40.2261 17.4178 40.0609C16.9737 39.8953 16.4793 40.1214 16.3137 40.5655C16.1102 41.1118 15.9178 41.6639 15.7369 42.2209C15.5911 42.6716 15.8378 43.1561 16.2886 43.3024C16.7393 43.4486 17.2238 43.2014 17.37 42.7507ZM91.8915 41.0196C92.0884 41.5424 92.2751 42.0701 92.4502 42.6032C92.5981 43.0535 93.0838 43.2987 93.5337 43.1508C93.9836 43.0024 94.2287 42.5171 94.0808 42.0672C93.8979 41.5106 93.7034 40.9594 93.4974 40.4139C93.3306 39.9706 92.835 39.7465 92.3917 39.9134C91.9484 40.0806 91.7243 40.5763 91.8915 41.0196V41.0196ZM78.7953 39.2575C79.321 39.2575 79.8999 39.2575 80.5121 39.2575C80.9854 39.2575 81.3702 38.8727 81.3702 38.3993C81.3702 37.9256 80.9854 37.5408 80.5121 37.5408C79.8999 37.5408 79.321 37.5408 78.7953 37.5408C78.3216 37.5408 77.9372 37.9256 77.9372 38.3993C77.9372 38.8727 78.3216 39.2575 78.7953 39.2575ZM18.8981 39.2575C19.3274 39.2575 19.9165 39.2575 20.6148 39.2575C21.0886 39.2575 21.473 38.8727 21.473 38.3993C21.473 37.9256 21.0886 37.5408 20.6148 37.5408C19.9165 37.5408 19.3274 37.5408 18.8981 37.5408C18.4243 37.5408 18.0399 37.9256 18.0399 38.3993C18.0399 38.8727 18.4243 39.2575 18.8981 39.2575ZM83.9452 39.2575C84.5219 39.2575 85.0983 39.2575 85.6619 39.2575C86.1353 39.2575 86.5201 38.8727 86.5201 38.3993C86.5201 37.9256 86.1353 37.5408 85.6619 37.5408C85.0983 37.5408 84.5219 37.5408 83.9452 37.5408C83.4714 37.5408 83.087 37.9256 83.087 38.3993C83.087 38.8727 83.4714 39.2575 83.9452 39.2575ZM24.0479 39.2575C24.6102 39.2575 25.1866 39.2575 25.7646 39.2575C26.2384 39.2575 26.6228 38.8727 26.6228 38.3993C26.6228 37.9256 26.2384 37.5408 25.7646 37.5408C25.1866 37.5408 24.6102 37.5408 24.0479 37.5408C23.5741 37.5408 23.1897 37.9256 23.1897 38.3993C23.1897 38.8727 23.5741 39.2575 24.0479 39.2575ZM89.095 39.2575C89.778 39.2575 90.3655 39.2575 90.8117 39.2575C91.2851 39.2575 91.6699 38.8727 91.6699 38.3993C91.6699 37.9256 91.2851 37.5408 90.8117 37.5408C90.3655 37.5408 89.778 37.5408 89.095 37.5408C88.6212 37.5408 88.2368 37.9256 88.2368 38.3993C88.2368 38.8727 88.6212 39.2575 89.095 39.2575ZM29.1977 39.2575C29.807 39.2575 30.3854 39.2575 30.9144 39.2575C31.3882 39.2575 31.7726 38.8727 31.7726 38.3993C31.7726 37.9256 31.3882 37.5408 30.9144 37.5408C30.3854 37.5408 29.807 37.5408 29.1977 37.5408C28.7239 37.5408 28.3395 37.9256 28.3395 38.3993C28.3395 38.8727 28.7239 39.2575 29.1977 39.2575ZM34.4143 39.2361C35.0808 39.1838 35.7207 39.0371 36.3209 38.8097C36.7638 38.6416 36.9871 38.1456 36.8194 37.7027C36.6513 37.2598 36.1553 37.0365 35.7124 37.2046C35.2617 37.3751 34.7805 37.4856 34.2799 37.5247C33.8078 37.5618 33.4543 37.9754 33.4914 38.4475C33.5285 38.9197 33.9421 39.2732 34.4143 39.2361V39.2361ZM73.379 38.7429C73.9735 38.9868 74.61 39.15 75.2737 39.2196C75.745 39.269 76.1677 38.9263 76.2167 38.4554C76.2662 37.9841 75.9238 37.5618 75.4525 37.5123C74.954 37.46 74.4761 37.3376 74.0295 37.1543C73.5907 36.9751 73.0893 37.1852 72.9097 37.6236C72.7301 38.0619 72.9406 38.5637 73.379 38.7429V38.7429ZM39.4096 36.4844C39.7993 35.9653 40.1174 35.3898 40.3501 34.7726C40.5174 34.3293 40.2929 33.8337 39.8496 33.6669C39.4067 33.4996 38.9111 33.7237 38.7438 34.167C38.5691 34.6313 38.3298 35.0639 38.0368 35.4541C37.7526 35.8331 37.8292 36.3715 38.2082 36.6558C38.5868 36.9401 39.1253 36.8635 39.4096 36.4844ZM69.4565 34.6021C69.6732 35.2262 69.9764 35.81 70.3517 36.3386C70.6261 36.7246 71.1625 36.8153 71.5485 36.5409C71.935 36.2665 72.0256 35.7301 71.7512 35.3441C71.469 34.9469 71.2408 34.5081 71.078 34.0393C70.9227 33.5919 70.4333 33.3546 69.9859 33.5099C69.5384 33.6652 69.3011 34.1547 69.4565 34.6021ZM40.739 31.0137C40.6884 30.4081 40.6035 29.8086 40.4848 29.2174C40.3913 28.7527 39.9386 28.4515 39.4742 28.5447C39.0099 28.6378 38.7084 29.0905 38.8015 29.5548C38.9074 30.0822 38.9832 30.6165 39.0281 31.1562C39.0676 31.6284 39.4829 31.9794 39.9546 31.9402C40.4268 31.9007 40.7782 31.4858 40.739 31.0137V31.0137ZM69.4173 29.053C69.2925 29.643 69.201 30.242 69.1442 30.8464C69.0997 31.3181 69.4466 31.7371 69.9183 31.7812C70.39 31.8257 70.809 31.4788 70.8531 31.0071C70.9038 30.4682 70.9853 29.9347 71.097 29.4086C71.195 28.9451 70.8984 28.489 70.4349 28.391C69.9714 28.2929 69.5154 28.5896 69.4173 29.053ZM39.37 25.7708C39.1191 25.2208 38.8369 24.6848 38.5238 24.1657C38.2795 23.7603 37.7513 23.6293 37.3459 23.874C36.9401 24.1183 36.8091 24.6465 37.0538 25.0518C37.3328 25.5145 37.5845 25.9924 37.8078 26.4827C38.0043 26.9136 38.5139 27.1044 38.9449 26.9078C39.3758 26.7113 39.5661 26.2017 39.37 25.7708V25.7708ZM71.4315 24.0227C71.1131 24.5385 70.8251 25.0712 70.5688 25.6183C70.3678 26.0476 70.5528 26.5589 70.9816 26.7599C71.4105 26.961 71.9222 26.776 72.1232 26.3471C72.3519 25.8593 72.6086 25.3843 72.8924 24.9245C73.1413 24.5212 73.016 23.9922 72.6127 23.7434C72.2098 23.4945 71.6804 23.6198 71.4315 24.0227V24.0227ZM36.3106 21.2982C36.262 21.2484 36.213 21.1985 36.1635 21.1491C35.7833 20.7688 35.3857 20.41 34.9725 20.0734C34.6054 19.7739 34.0641 19.8291 33.765 20.1962C33.4659 20.5637 33.5211 21.1046 33.8881 21.4041C34.2565 21.7041 34.6108 22.0242 34.9498 22.3628C34.9939 22.4069 35.0376 22.4514 35.0808 22.4959C35.4113 22.8354 35.9551 22.8424 36.2945 22.512C36.634 22.1815 36.641 21.6377 36.3106 21.2982V21.2982ZM75.0261 19.9679C74.5663 20.335 74.1247 20.7289 73.7049 21.1491C73.695 21.159 73.6851 21.1689 73.6752 21.1788C73.3411 21.5145 73.3427 22.0584 73.6785 22.3925C74.0142 22.7266 74.5581 22.7254 74.8922 22.3892C74.9008 22.3805 74.9099 22.3719 74.9186 22.3628C75.2931 21.9883 75.6865 21.6373 76.0964 21.3102C76.4668 21.0148 76.5278 20.4743 76.2324 20.1039C75.937 19.7335 75.3965 19.6726 75.0261 19.9679V19.9679ZM71.2325 18.9648C71.743 19.1967 72.2477 19.4394 72.7466 19.6923C73.1693 19.9066 73.6859 19.7372 73.9001 19.3145C74.1144 18.8923 73.9455 18.3752 73.5228 18.161C73.0024 17.8973 72.4755 17.6439 71.9424 17.4021C71.5114 17.206 71.0018 17.3972 70.8061 17.8285C70.61 18.2594 70.8012 18.7687 71.2325 18.9648ZM37.1226 19.6915C37.6216 19.439 38.1262 19.1963 38.6371 18.9644C39.0684 18.7683 39.2592 18.259 39.0635 17.8277C38.8674 17.3963 38.3582 17.2056 37.9268 17.4013C37.3941 17.6435 36.8672 17.8965 36.3469 18.1606C35.9242 18.3748 35.7549 18.8914 35.9691 19.3141C36.1833 19.7364 36.7004 19.9057 37.1226 19.6915ZM66.5231 17.1805C67.0599 17.3448 67.5914 17.5208 68.1179 17.7078C68.5645 17.866 69.0556 17.632 69.2138 17.1854C69.372 16.7392 69.138 16.2481 68.6918 16.0899C68.1422 15.8947 67.5873 15.7113 67.027 15.5391C66.5742 15.4003 66.0938 15.6549 65.9546 16.1076C65.8157 16.5608 66.0704 17.0412 66.5231 17.1805ZM41.7517 17.707C42.2782 17.5203 42.8097 17.3444 43.3461 17.18C43.7993 17.0408 44.0539 16.5604 43.915 16.1076C43.7758 15.6545 43.2954 15.3999 42.8426 15.5387C42.2823 15.7109 41.7274 15.8942 41.1778 16.0891C40.7312 16.2477 40.4972 16.7388 40.6558 17.185C40.814 17.6316 41.3051 17.8656 41.7517 17.707V17.707ZM61.6238 16.0145C62.1779 16.1093 62.7275 16.2156 63.2734 16.333C63.7365 16.4327 64.1933 16.1377 64.2931 15.6747C64.3928 15.2116 64.0978 14.7547 63.6347 14.655C63.0653 14.5322 62.4914 14.4214 61.9134 14.3225C61.4462 14.243 61.0025 14.5569 60.9226 15.0241C60.8427 15.4909 61.157 15.935 61.6238 16.0145V16.0145ZM46.5962 16.333C47.1421 16.2152 47.6917 16.1093 48.2454 16.0145C48.7126 15.9346 49.0269 15.4909 48.947 15.0237C48.8671 14.5569 48.4234 14.2426 47.9562 14.3225C47.3782 14.421 46.8043 14.5322 46.2349 14.6546C45.7719 14.7543 45.4769 15.2112 45.5766 15.6742C45.6763 16.1373 46.1332 16.4327 46.5962 16.333V16.333ZM56.6149 15.4843C57.1768 15.5082 57.7359 15.5432 58.2917 15.5902C58.7638 15.6302 59.1795 15.2791 59.219 14.807C59.259 14.3353 58.908 13.9196 58.4363 13.8796C57.8562 13.831 57.2732 13.7939 56.687 13.7692C56.2136 13.7494 55.8132 14.1178 55.7934 14.5911C55.7736 15.0641 56.1415 15.4645 56.6149 15.4843V15.4843ZM51.5775 15.5902C52.1337 15.5432 52.6924 15.5078 53.2547 15.4843C53.7281 15.4645 54.096 15.0641 54.0762 14.5911C54.0565 14.1178 53.656 13.7494 53.1826 13.7692C52.5964 13.7939 52.0134 13.8306 51.4333 13.8796C50.9616 13.9196 50.6106 14.3349 50.6502 14.807C50.6901 15.2791 51.1058 15.6302 51.5775 15.5902V15.5902Z" fill="#E0DFFF"/>
<path d="M74.9628 61.0827C76.5772 61.0827 77.8859 59.774 77.8859 58.1597C77.8859 56.5454 76.5772 55.2367 74.9628 55.2367C73.3485 55.2367 72.0398 56.5454 72.0398 58.1597C72.0398 59.774 73.3485 61.0827 74.9628 61.0827Z" fill="white"/>
<path d="M36.9058 57.2493C38.7929 57.2493 40.3228 55.7194 40.3228 53.8323C40.3228 51.9451 38.7929 50.4153 36.9058 50.4153C35.0186 50.4153 33.4888 51.9451 33.4888 53.8323C33.4888 55.7194 35.0186 57.2493 36.9058 57.2493Z" fill="white"/>
<path d="M47.9031 57.2493C49.7902 57.2493 51.3201 55.7194 51.3201 53.8323C51.3201 51.9451 49.7902 50.4153 47.9031 50.4153C46.0159 50.4153 44.4861 51.9451 44.4861 53.8323C44.4861 55.7194 46.0159 57.2493 47.9031 57.2493Z" fill="white"/>
<path d="M58.9138 57.2493C60.801 57.2493 62.3308 55.7194 62.3308 53.8323C62.3308 51.9451 60.801 50.4153 58.9138 50.4153C57.0267 50.4153 55.4968 51.9451 55.4968 53.8323C55.4968 55.7194 57.0267 57.2493 58.9138 57.2493Z" fill="white"/>
<path fill-rule="evenodd" clip-rule="evenodd" d="M79.9544 82.7263C79.7559 82.3192 79.2751 82.1363 78.8561 82.3089C76.9465 83.0958 75.1911 84.2572 73.7022 85.7461C70.7375 88.7107 69.0723 92.7317 69.0723 96.9241V96.927C69.0723 100.753 72.1737 103.854 75.9998 103.854C81.9517 103.854 90.975 103.854 96.9266 103.854C100.753 103.854 103.855 100.753 103.855 96.927C103.855 96.9257 103.855 96.9249 103.855 96.9241C103.855 92.7317 102.189 88.7107 99.2246 85.7461C97.7357 84.2572 95.9802 83.0958 94.0707 82.3089C93.6517 82.1363 93.1709 82.3192 92.9723 82.7263C91.7965 85.1351 89.3226 86.7971 86.4634 86.7971C83.6042 86.7971 81.1302 85.1351 79.9544 82.7263Z" fill="#605DEC"/>
<path fill-rule="evenodd" clip-rule="evenodd" d="M16.8848 82.7263C16.6862 82.3192 16.205 82.1363 15.7864 82.3089C13.8769 83.0958 12.1214 84.2572 10.6325 85.7461C7.66785 88.7107 6.0022 92.7317 6.0022 96.9241V96.927C6.0022 100.753 9.10403 103.854 12.9301 103.854C18.8821 103.854 27.9054 103.854 33.8569 103.854C37.683 103.854 40.7849 100.753 40.7849 96.927C40.7849 96.9257 40.7849 96.9249 40.7849 96.9241C40.7849 92.7317 39.1196 88.7107 36.155 85.7461C34.6661 84.2572 32.9106 83.0958 31.001 82.3089C30.582 82.1363 30.1013 82.3192 29.9027 82.7263C28.7269 85.1351 26.2529 86.7971 23.3937 86.7971C20.5346 86.7971 18.0606 85.1351 16.8848 82.7263V82.7263Z" fill="#605DEC"/>
<path fill-rule="evenodd" clip-rule="evenodd" d="M79.9544 18.1293C79.7559 17.7222 79.2751 17.5397 78.8561 17.7123C76.9465 18.4992 75.1911 19.6606 73.7022 21.1495C70.7375 24.1142 69.0723 28.1347 69.0723 32.3271V32.33C69.0723 36.1561 72.1737 39.2579 75.9998 39.2579C81.9517 39.2579 90.975 39.2579 96.9266 39.2579C100.753 39.2579 103.855 36.1561 103.855 32.33C103.855 32.3292 103.855 32.3283 103.855 32.3271C103.855 28.1347 102.189 24.1142 99.2246 21.1495C97.7357 19.6606 95.9802 18.4992 94.0707 17.7123C93.6517 17.5397 93.1709 17.7222 92.9723 18.1293C91.7965 20.5386 89.3226 22.2001 86.4634 22.2001C83.6042 22.2001 81.1302 20.5386 79.9544 18.1293V18.1293Z" fill="#605DEC"/>
<path fill-rule="evenodd" clip-rule="evenodd" d="M16.8848 18.1293C16.6862 17.7222 16.205 17.5397 15.7864 17.7123C13.8769 18.4992 12.1214 19.6606 10.6325 21.1495C7.66785 24.1142 6.0022 28.1347 6.0022 32.3271V32.33C6.0022 36.1561 9.10403 39.2579 12.9301 39.2579C18.8821 39.2579 27.9054 39.2579 33.8569 39.2579C37.683 39.2579 40.7849 36.1561 40.7849 32.33C40.7849 32.3292 40.7849 32.3283 40.7849 32.3271C40.7849 28.1347 39.1196 24.1142 36.155 21.1495C34.6661 19.6606 32.9106 18.4992 31.001 17.7123C30.582 17.5397 30.1013 17.7222 29.9027 18.1293C28.7269 20.5386 26.2529 22.2001 23.3937 22.2001C20.5346 22.2001 18.0606 20.5386 16.8848 18.1293V18.1293Z" fill="#605DEC"/>
<path d="M23.4023 88.5137C28.3475 88.5137 32.3564 84.5048 32.3564 79.5596C32.3564 74.6144 28.3475 70.6055 23.4023 70.6055C18.4571 70.6055 14.4482 74.6144 14.4482 79.5596C14.4482 84.5048 18.4571 88.5137 23.4023 88.5137Z" fill="#E0DFFF"/>
<path d="M86.459 88.5137C91.4042 88.5137 95.413 84.5048 95.413 79.5596C95.413 74.6144 91.4042 70.6055 86.459 70.6055C81.5138 70.6055 77.5049 74.6144 77.5049 79.5596C77.5049 84.5048 81.5138 88.5137 86.459 88.5137Z" fill="#E0DFFF"/>
<path d="M86.459 23.9162C91.4042 23.9162 95.413 19.9074 95.413 14.9622C95.413 10.017 91.4042 6.00807 86.459 6.00807C81.5138 6.00807 77.5049 10.017 77.5049 14.9622C77.5049 19.9074 81.5138 23.9162 86.459 23.9162Z" fill="#E0DFFF"/>
<path d="M23.4023 23.9162C28.3475 23.9162 32.3564 19.9074 32.3564 14.9622C32.3564 10.017 28.3475 6.00807 23.4023 6.00807C18.4571 6.00807 14.4482 10.017 14.4482 14.9622C14.4482 19.9074 18.4571 23.9162 23.4023 23.9162Z" fill="#E0DFFF"/>
</svg>
