<svg width="110" height="110" viewBox="0 0 110 110" fill="none" xmlns="http://www.w3.org/2000/svg">
<path fill-rule="evenodd" clip-rule="evenodd" d="M47.5296 56.2524C47.3112 56.0847 47.0261 56.032 46.762 56.1102C46.4984 56.1885 46.2878 56.3887 46.1968 56.6483C44.8224 60.5584 41.7873 63.4897 38.1136 64.853C37.8211 64.9617 37.6102 65.2209 37.5636 65.5295C37.5171 65.838 37.6419 66.1478 37.8895 66.3382L51.0524 76.4557C51.2691 76.6226 51.5526 76.6757 51.815 76.5995C52.0779 76.5233 52.2884 76.3263 52.3819 76.0693C53.7827 72.2279 56.309 69.0602 59.4784 66.8449C59.7025 66.688 59.8384 66.4342 59.8446 66.1606C59.8508 65.8875 59.7264 65.6275 59.5097 65.4607L47.5296 56.2524V56.2524ZM57.3245 24.2407C57.2602 23.9548 57.0542 23.7216 56.779 23.6219C56.5034 23.5222 56.1961 23.57 55.9637 23.7484L37.6242 37.8453C37.3737 38.0377 37.2493 38.3516 37.3 38.6631C37.3506 38.9745 37.5678 39.2333 37.866 39.3367C41.7943 40.6987 44.7412 43.7338 46.1152 47.4136C46.2108 47.6687 46.4213 47.8635 46.6829 47.9385C46.945 48.0135 47.2268 47.9599 47.4426 47.7939L64.416 34.7476C64.6484 34.5688 64.7736 34.2837 64.7481 33.9916C64.7221 33.6995 64.5491 33.4408 64.2891 33.3056C60.7048 31.441 58.1884 28.0808 57.3245 24.2407V24.2407Z" fill="#5957D0"/>
<path fill-rule="evenodd" clip-rule="evenodd" d="M74.509 6.53135C66.3677 4.34989 57.9867 9.18866 55.8053 17.3299C53.6238 25.4715 58.4626 33.8521 66.6038 36.0336C74.745 38.2151 83.1261 33.3763 85.3075 25.2351C87.489 17.0938 82.6502 8.71281 74.509 6.53135Z" fill="#E0DFFF"/>
<path fill-rule="evenodd" clip-rule="evenodd" d="M37.3688 37.3883C29.2272 35.2068 20.8458 40.0456 18.6643 48.1872C16.4824 56.3293 21.3216 64.7107 29.4632 66.8922C37.6053 69.0736 45.9863 64.2349 48.1682 56.0928C50.3496 47.9512 45.5109 39.5697 37.3688 37.3883V37.3883Z" fill="#E0DFFF"/>
<path fill-rule="evenodd" clip-rule="evenodd" d="M76.0666 62.3376C64.8096 59.3211 53.2213 66.0117 50.2047 77.2688C47.1886 88.5263 53.8788 100.115 65.1363 103.131C76.3933 106.147 87.9817 99.4567 90.9982 88.1996C94.0144 76.9421 87.3241 65.3538 76.0666 62.3376Z" fill="#605DEC"/>
<path fill-rule="evenodd" clip-rule="evenodd" d="M57.5748 27.8531C57.2349 28.1168 57.1426 28.5914 57.3589 28.963C59.3162 32.326 62.5503 34.9475 66.6022 36.0331C73.3703 37.8466 80.3036 34.8087 83.7029 29.0557C83.9212 28.6861 83.8331 28.2124 83.4969 27.9462C80.3654 25.4665 75.6959 23.8742 70.4765 23.8742C65.3222 23.8742 60.7038 25.4269 57.5748 27.8531V27.8531ZM70.4765 10.5357C67.4019 10.5357 64.9061 13.0315 64.9061 16.1062C64.9061 19.1804 67.4019 21.6766 70.4765 21.6766C73.5507 21.6766 76.047 19.1804 76.047 16.1062C76.047 13.0315 73.5507 10.5357 70.4765 10.5357Z" fill="#605DEC"/>
<path fill-rule="evenodd" clip-rule="evenodd" d="M20.9533 59.5231C20.5887 59.7979 20.503 60.31 20.7585 60.6882C22.7451 63.6327 25.7616 65.9019 29.4588 66.8927C35.8647 68.609 42.419 65.9797 45.9843 60.8155C46.243 60.4406 46.1639 59.9285 45.8034 59.6496C42.6534 57.209 38.2151 55.6756 33.2956 55.6756C28.4609 55.6756 24.091 57.1567 20.9533 59.5231ZM33.2956 41.4951C30.2213 41.4951 27.7251 43.9913 27.7251 47.0655C27.7251 50.1401 30.2213 52.636 33.2956 52.636C36.3698 52.636 38.866 50.1401 38.866 47.0655C38.866 43.9913 36.3698 41.4951 33.2956 41.4951Z" fill="#605DEC"/>
<path d="M59.2276 86.5862C61.3548 86.5862 63.0793 84.8618 63.0793 82.7346C63.0793 80.6073 61.3548 78.8829 59.2276 78.8829C57.1004 78.8829 55.376 80.6073 55.376 82.7346C55.376 84.8618 57.1004 86.5862 59.2276 86.5862Z" fill="white"/>
<path d="M70.6009 86.5862C72.7281 86.5862 74.4526 84.8618 74.4526 82.7346C74.4526 80.6073 72.7281 78.8829 70.6009 78.8829C68.4737 78.8829 66.7493 80.6073 66.7493 82.7346C66.7493 84.8618 68.4737 86.5862 70.6009 86.5862Z" fill="white"/>
<path d="M81.9742 86.5862C84.1014 86.5862 85.8259 84.8618 85.8259 82.7346C85.8259 80.6073 84.1014 78.8829 81.9742 78.8829C79.847 78.8829 78.1226 80.6073 78.1226 82.7346C78.1226 84.8618 79.847 86.5862 81.9742 86.5862Z" fill="white"/>
</svg>
