<svg width="103" height="38" viewBox="0 0 103 38" fill="none" xmlns="http://www.w3.org/2000/svg">
<path d="M44.07 22.8432C42.9767 22.8432 41.99 22.6099 41.11 22.1432C40.2433 21.6766 39.5567 21.0099 39.05 20.1432C38.5567 19.2766 38.31 18.2632 38.31 17.1032C38.31 15.9566 38.5633 14.9499 39.07 14.0832C39.5767 13.2032 40.27 12.5299 41.15 12.0632C42.03 11.5966 43.0167 11.3632 44.11 11.3632C45.2033 11.3632 46.19 11.5966 47.07 12.0632C47.95 12.5299 48.6433 13.2032 49.15 14.0832C49.6567 14.9499 49.91 15.9566 49.91 17.1032C49.91 18.2499 49.65 19.2632 49.13 20.1432C48.6233 21.0099 47.9233 21.6766 47.03 22.1432C46.15 22.6099 45.1633 22.8432 44.07 22.8432ZM44.07 19.8832C44.7233 19.8832 45.2767 19.6432 45.73 19.1632C46.1967 18.6832 46.43 17.9966 46.43 17.1032C46.43 16.2099 46.2033 15.5232 45.75 15.0432C45.31 14.5632 44.7633 14.3232 44.11 14.3232C43.4433 14.3232 42.89 14.5632 42.45 15.0432C42.01 15.5099 41.79 16.1966 41.79 17.1032C41.79 17.9966 42.0033 18.6832 42.43 19.1632C42.87 19.6432 43.4167 19.8832 44.07 19.8832ZM62.7444 11.5232V22.6832H59.3244V21.1632C58.9777 21.6566 58.5044 22.0566 57.9044 22.3632C57.3177 22.6566 56.6644 22.8032 55.9444 22.8032C55.091 22.8032 54.3377 22.6166 53.6844 22.2432C53.031 21.8566 52.5244 21.3032 52.1644 20.5832C51.8044 19.8632 51.6244 19.0166 51.6244 18.0432V11.5232H55.0244V17.5832C55.0244 18.3299 55.2177 18.9099 55.6044 19.3232C55.991 19.7366 56.511 19.9432 57.1644 19.9432C57.831 19.9432 58.3577 19.7366 58.7444 19.3232C59.131 18.9099 59.3244 18.3299 59.3244 17.5832V11.5232H62.7444ZM69.7409 22.8432C68.7676 22.8432 67.9009 22.6766 67.1409 22.3432C66.3809 22.0099 65.7809 21.5566 65.3409 20.9832C64.9009 20.3966 64.6543 19.7432 64.6009 19.0232H67.9809C68.0209 19.4099 68.2009 19.7232 68.5209 19.9632C68.8409 20.2032 69.2343 20.3232 69.7009 20.3232C70.1276 20.3232 70.4543 20.2432 70.6809 20.0832C70.9209 19.9099 71.0409 19.6899 71.0409 19.4232C71.0409 19.1032 70.8743 18.8699 70.5409 18.7232C70.2076 18.5632 69.6676 18.3899 68.9209 18.2032C68.1209 18.0166 67.4543 17.8232 66.9209 17.6232C66.3876 17.4099 65.9276 17.0832 65.5409 16.6432C65.1543 16.1899 64.9609 15.5832 64.9609 14.8232C64.9609 14.1832 65.1343 13.6032 65.4809 13.0832C65.8409 12.5499 66.3609 12.1299 67.0409 11.8232C67.7343 11.5166 68.5543 11.3632 69.5009 11.3632C70.9009 11.3632 72.0009 11.7099 72.8009 12.4032C73.6143 13.0966 74.0809 14.0166 74.2009 15.1632H71.0409C70.9876 14.7766 70.8143 14.4699 70.5209 14.2432C70.2409 14.0166 69.8676 13.9032 69.4009 13.9032C69.0009 13.9032 68.6943 13.9832 68.4809 14.1432C68.2676 14.2899 68.1609 14.4966 68.1609 14.7632C68.1609 15.0832 68.3276 15.3232 68.6609 15.4832C69.0076 15.6432 69.5409 15.8032 70.2609 15.9632C71.0876 16.1766 71.7609 16.3899 72.2809 16.6032C72.8009 16.8032 73.2543 17.1366 73.6409 17.6032C74.0409 18.0566 74.2476 18.6699 74.2609 19.4432C74.2609 20.0966 74.0743 20.6832 73.7009 21.2032C73.3409 21.7099 72.8143 22.1099 72.1209 22.4032C71.4409 22.6966 70.6476 22.8432 69.7409 22.8432ZM86.8733 16.9232C86.8733 17.2432 86.8533 17.5766 86.8133 17.9232H79.0733C79.1266 18.6166 79.3466 19.1499 79.7333 19.5232C80.1333 19.8832 80.6199 20.0632 81.1933 20.0632C82.0466 20.0632 82.6399 19.7032 82.9733 18.9832H86.6133C86.4266 19.7166 86.0866 20.3766 85.5933 20.9632C85.1133 21.5499 84.5066 22.0099 83.7733 22.3432C83.0399 22.6766 82.2199 22.8432 81.3133 22.8432C80.2199 22.8432 79.2466 22.6099 78.3933 22.1432C77.5399 21.6766 76.8733 21.0099 76.3933 20.1432C75.9133 19.2766 75.6733 18.2632 75.6733 17.1032C75.6733 15.9432 75.9066 14.9299 76.3733 14.0632C76.8533 13.1966 77.5199 12.5299 78.3733 12.0632C79.2266 11.5966 80.2066 11.3632 81.3133 11.3632C82.3933 11.3632 83.3533 11.5899 84.1933 12.0432C85.0333 12.4966 85.6866 13.1432 86.1533 13.9832C86.6333 14.8232 86.8733 15.8032 86.8733 16.9232ZM83.3733 16.0232C83.3733 15.4366 83.1733 14.9699 82.7733 14.6232C82.3733 14.2766 81.8733 14.1032 81.2733 14.1032C80.6999 14.1032 80.2133 14.2699 79.8133 14.6032C79.4266 14.9366 79.1866 15.4099 79.0933 16.0232H83.3733Z" fill="black"/>
<path d="M24.8591 25.8311V15.1389C24.8591 13.7847 25.4023 12.4859 26.3694 11.5283C27.3366 10.5708 28.6484 10.0328 30.0161 10.0328C31.3839 10.0328 32.6957 10.5708 33.6628 11.5283C34.63 12.4859 35.1735 13.7847 35.1735 15.1389V25.8311C35.1735 27.1853 34.63 28.4841 33.6628 29.4417C32.6957 30.3992 31.3839 30.9372 30.0161 30.9372C28.6484 30.9372 27.3366 30.3992 26.3694 29.4417C25.4023 28.4841 24.8591 27.1853 24.8591 25.8311ZM0 25.8311V9.12127C0.0209388 7.78072 0.573473 6.50202 1.53835 5.56135C2.50324 4.62069 3.80294 4.09338 5.15706 4.09338C6.51118 4.09338 7.81118 4.62069 8.77606 5.56135C9.74094 6.50202 10.2935 7.78072 10.3144 9.12127V25.8311C10.2935 27.1716 9.74094 28.4503 8.77606 29.391C7.81118 30.3316 6.51118 30.8588 5.15706 30.8588C3.80294 30.8588 2.50324 30.3316 1.53835 29.391C0.573473 28.4503 0.0209388 27.1716 0 25.8311ZM13.9367 20.728C13.4758 20.2717 13.1103 19.73 12.8609 19.1338C12.6114 18.5376 12.483 17.8986 12.483 17.2532C12.483 16.6079 12.6114 15.969 12.8609 15.3728C13.1103 14.7766 13.4758 14.2349 13.9367 13.7786L14.2116 13.5063C14.6708 13.0424 15.2184 12.6733 15.8226 12.4202C16.4267 12.1671 17.0756 12.0351 17.7316 12.0319C18.3876 12.0286 19.0375 12.1542 19.6442 12.4012C20.2509 12.6483 20.8022 13.0121 21.266 13.4714C21.7298 13.9307 22.0969 14.4764 22.3463 15.0771C22.5958 15.6778 22.7225 16.3216 22.7191 16.9711C22.7157 17.6206 22.5825 18.2629 22.3268 18.861C22.0711 19.4592 21.6978 20.0012 21.2292 20.4557L20.9555 20.728C20.4947 21.1844 19.9477 21.5463 19.3455 21.7932C18.7434 22.0402 18.0979 22.1674 17.4461 22.1674C16.7944 22.1674 16.1489 22.0402 15.5467 21.7932C14.9446 21.5463 14.3976 21.1844 13.9367 20.728Z" fill="#444BD3"/>
</svg>
