<svg width="698" height="92" viewBox="0 0 698 92" fill="none" xmlns="http://www.w3.org/2000/svg">
<path fill-rule="evenodd" clip-rule="evenodd" d="M151.869 51.7458C151.646 31.6905 141.678 18.5797 127.139 10.6083C112.531 2.59915 93.3291 -0.228101 74.7351 0.0142199C56.3799 0.160802 39.5704 3.69684 26.5689 9.50437C13.6214 15.2878 4.19964 23.4449 1.08864 32.9966L1.08836 32.9975C0.402696 35.1072 0.0407195 37.2841 0.00324551 39.4656C0.00109332 39.498 3.07036e-10 39.5307 3.07036e-10 39.5637C3.07036e-10 39.6223 8.23642e-05 39.6808 0.000246966 39.7393C-0.000566834 39.9111 0.00063056 40.0828 0.00383954 40.2546C0.22741 60.3097 10.1949 73.4204 24.7341 81.3917C39.3423 89.4008 58.544 92.2281 77.138 91.9858C95.4932 91.8392 112.303 88.3031 125.304 82.4956C138.252 76.7122 147.673 68.5551 150.784 59.0034L150.785 59.0025C151.544 56.6659 151.915 54.2036 151.869 51.7458ZM148.993 52.3554C148.965 50.4348 148.641 48.5467 148.041 46.6963C147.988 46.5357 147.934 46.3754 147.877 46.2154C147.207 44.3238 146.251 42.4694 145.014 40.668C140.134 33.5579 130.986 27.3005 118.903 22.8192C106.849 18.349 92.0097 15.699 75.9317 15.699C64.5173 15.699 54.0563 17.7116 45.8064 21.0522C37.514 24.4101 31.6471 29.0277 29.1142 34.0972C28.1654 35.9941 27.7024 37.9283 27.7031 39.8476C27.7397 40.7264 27.8765 41.6131 28.1188 42.5056C31.5199 37.7233 37.3688 33.6467 44.7775 30.6573C53.5366 27.123 64.6591 25.0294 77.0346 25.1156L77.0405 25.1156C88.5302 25.2428 99.1126 27.3515 107.548 30.8388C115.071 33.9491 123.483 39.0901 126.239 47.2843C129.285 56.3374 123.387 64.53 116.096 69.435C106.877 75.6371 92.5511 79.6853 75.9317 79.6853C57.31 79.6853 40.2186 76.1972 26.9939 70.3766C17.361 66.1368 9.64203 60.594 4.96088 54.1437C8.4511 65.379 16.0968 73.3565 26.1116 78.8473C40.1052 86.5194 58.7436 89.3281 77.1043 89.0884L77.1116 89.0883C95.1394 88.9448 111.55 85.4691 124.136 79.8472C136.776 74.2011 145.309 66.511 148.048 58.1018C148.658 56.2252 148.973 54.2907 148.993 52.3554ZM122.545 45.9909C119.948 41.1651 114.321 36.7715 106.454 33.519C98.4027 30.1905 88.1895 28.1372 77.0123 28.0131C64.9547 27.9293 54.2114 29.9725 45.8491 33.3467C37.6678 36.6479 31.9364 41.1495 29.3284 46.0091C30.4239 48.0448 32.0586 50.0037 34.1733 51.8324C37.0715 54.3387 40.8712 56.6005 45.4196 58.481C53.4704 61.8095 63.6836 63.8628 74.8608 63.9869C86.9184 64.0707 97.6616 62.0275 106.024 58.6533C114.205 55.3521 119.937 50.8505 122.545 45.9909Z" fill="#663CEE"/>
<path d="M185.825 66H173.793V23.12H186.593L198.497 39.184L204.769 49.04H205.601L205.025 39.696V23.12H217.057V66H204.257L191.585 49.488L186.145 41.04H185.313L185.825 49.232V66ZM238.774 66.64C227.574 66.64 219.958 60.304 219.958 49.872C219.958 39.376 227.574 33.104 238.774 33.104C249.974 33.104 257.59 39.376 257.59 49.872C257.59 60.304 249.974 66.64 238.774 66.64ZM238.774 56.016C244.214 56.016 245.686 54.544 245.686 49.872C245.686 45.2 244.214 43.664 238.774 43.664C233.334 43.664 231.862 45.2 231.862 49.872C231.862 54.544 233.334 56.016 238.774 56.016ZM272.513 66H260.481V33.744H271.745V43.536H272.385C273.089 38.16 276.033 33.104 284.161 33.104C291.777 33.104 295.425 37.712 296.065 43.536H296.705C297.409 38.16 300.481 33.104 308.865 33.104C317.121 33.104 321.025 38.352 321.025 45.328V66H308.993V49.744C308.993 45.264 307.713 43.856 302.721 43.856C297.793 43.856 296.769 45.2 296.769 49.36V66H284.737V49.744C284.737 45.264 283.457 43.856 278.465 43.856C273.537 43.856 272.513 45.2 272.513 49.36V66ZM342.462 66.64C331.262 66.64 323.646 60.304 323.646 49.872C323.646 39.376 331.262 33.104 342.462 33.104C353.662 33.104 361.278 39.376 361.278 49.872C361.278 60.304 353.662 66.64 342.462 66.64ZM342.462 56.016C347.902 56.016 349.374 54.544 349.374 49.872C349.374 45.2 347.902 43.664 342.462 43.664C337.022 43.664 335.55 45.2 335.55 49.872C335.55 54.544 337.022 56.016 342.462 56.016ZM381.512 66.64C370.12 66.64 364.04 62.224 364.04 54.8V54.544H376.072V55.184C376.072 56.976 377.224 57.168 381.576 57.168C385.736 57.168 386.376 56.72 386.376 55.632C386.376 54.608 385.864 54.352 382.856 54.032L373.512 53.008C366.856 52.304 363.272 49.168 363.272 43.728C363.272 38.032 367.816 33.104 379.912 33.104C391.112 33.104 397.064 37.136 397.064 45.072V45.328H385.032V44.944C385.032 43.28 384.392 42.512 379.528 42.512C375.624 42.512 375.112 43.024 375.112 44.24C375.112 45.136 375.624 45.584 379.4 45.968L385.8 46.672C395.208 47.696 398.216 50.832 398.216 56.272C398.216 62.288 392.2 66.64 381.512 66.64ZM422.075 66H410.043V23.12H422.843L434.747 39.184L441.019 49.04H441.851L441.275 39.696V23.12H453.307V66H440.507L427.835 49.488L422.395 41.04H421.563L422.075 49.232V66ZM475.152 66.64C464.208 66.64 456.528 61.968 456.528 49.872C456.528 39.376 464.144 33.104 474.896 33.104C486.032 33.104 493.136 38.672 493.136 49.04C493.136 50.128 493.072 50.96 492.944 52.112H467.664C467.856 56.016 469.584 57.104 474.704 57.104C479.568 57.104 480.848 56.272 480.848 54.352V53.648H492.88V54.416C492.88 61.584 486.032 66.64 475.152 66.64ZM474.64 42.32C470.224 42.32 468.368 43.28 467.856 46.032H481.488C481.04 43.28 479.12 42.32 474.64 42.32ZM520.484 66H512.036C503.972 66 499.172 62.096 499.172 53.712V43.6H494.436V33.744H499.172V28.176H511.204V33.744H520.484V43.6H511.204V51.984C511.204 54.544 511.972 55.184 514.724 55.184H520.484V66ZM544.284 66H529.244L521.116 33.744H533.596L535.9 45.392L537.116 56.912H537.948L540.636 44.112L543.836 33.744H559.324L562.524 44.112L565.212 56.912H566.044L567.324 45.392L569.564 33.744H581.852L573.34 66H558.3L554.14 53.072L551.772 43.408H550.94L548.508 53.072L544.284 66ZM601.337 66.64C590.137 66.64 582.521 60.304 582.521 49.872C582.521 39.376 590.137 33.104 601.337 33.104C612.537 33.104 620.153 39.376 620.153 49.872C620.153 60.304 612.537 66.64 601.337 66.64ZM601.337 56.016C606.777 56.016 608.249 54.544 608.249 49.872C608.249 45.2 606.777 43.664 601.337 43.664C595.897 43.664 594.425 45.2 594.425 49.872C594.425 54.544 595.897 56.016 601.337 56.016ZM635.075 66H623.043V33.744H634.307V42.192H634.947C635.843 36.88 639.171 33.104 645.571 33.104C652.675 33.104 655.491 37.776 655.491 44.24V50.64H643.459V46.864C643.459 44.176 642.435 43.216 639.299 43.216C636.035 43.216 635.075 44.176 635.075 46.736V66ZM670.075 66H658.043V23.12H670.075V44.944H675.771L682.875 33.744H697.083L685.627 49.424L696.891 66H682.683L675.899 55.696H670.075V66Z" fill="#1D1D1D"/>
</svg>
