<svg width="693" height="92" viewBox="0 0 693 92" fill="none" xmlns="http://www.w3.org/2000/svg">
<path fill-rule="evenodd" clip-rule="evenodd" d="M151.869 51.7458C151.646 31.6905 141.678 18.5797 127.139 10.6083C112.531 2.59915 93.3291 -0.228101 74.7351 0.0142199C56.3799 0.160802 39.5704 3.69684 26.5689 9.50437C13.6214 15.2878 4.19964 23.4449 1.08864 32.9966L1.08836 32.9975C0.402696 35.1072 0.0407195 37.2841 0.00324551 39.4656C0.00109332 39.498 3.07036e-10 39.5307 3.07036e-10 39.5637C3.07036e-10 39.6223 8.23642e-05 39.6808 0.000246966 39.7393C-0.000566834 39.9111 0.00063056 40.0828 0.00383954 40.2546C0.22741 60.3097 10.1949 73.4204 24.7341 81.3917C39.3423 89.4008 58.544 92.2281 77.138 91.9858C95.4932 91.8392 112.303 88.3031 125.304 82.4956C138.252 76.7122 147.673 68.5551 150.784 59.0034L150.785 59.0025C151.544 56.6659 151.915 54.2036 151.869 51.7458ZM148.993 52.3554C148.965 50.4348 148.641 48.5467 148.041 46.6963C147.988 46.5357 147.934 46.3754 147.877 46.2154C147.207 44.3238 146.251 42.4694 145.014 40.668C140.134 33.5579 130.986 27.3005 118.903 22.8192C106.849 18.349 92.0097 15.699 75.9317 15.699C64.5173 15.699 54.0563 17.7116 45.8064 21.0522C37.514 24.4101 31.6471 29.0277 29.1142 34.0972C28.1654 35.9941 27.7024 37.9283 27.7031 39.8476C27.7397 40.7264 27.8765 41.6131 28.1188 42.5056C31.5199 37.7233 37.3688 33.6467 44.7775 30.6573C53.5366 27.123 64.6591 25.0294 77.0346 25.1156L77.0405 25.1156C88.5302 25.2428 99.1126 27.3515 107.548 30.8388C115.071 33.9491 123.483 39.0901 126.239 47.2843C129.285 56.3374 123.387 64.53 116.096 69.435C106.877 75.6371 92.5511 79.6853 75.9317 79.6853C57.31 79.6853 40.2186 76.1972 26.9939 70.3766C17.361 66.1368 9.64203 60.594 4.96088 54.1437C8.4511 65.379 16.0968 73.3565 26.1116 78.8473C40.1052 86.5194 58.7436 89.3281 77.1043 89.0884L77.1116 89.0883C95.1394 88.9448 111.55 85.4691 124.136 79.8472C136.776 74.2011 145.309 66.511 148.048 58.1018C148.658 56.2252 148.973 54.2907 148.993 52.3554ZM122.545 45.9909C119.948 41.1651 114.321 36.7715 106.454 33.519C98.4027 30.1905 88.1895 28.1372 77.0123 28.0131C64.9547 27.9293 54.2114 29.9725 45.8491 33.3467C37.6678 36.6479 31.9364 41.1495 29.3284 46.0091C30.4239 48.0448 32.0586 50.0037 34.1733 51.8324C37.0715 54.3387 40.8712 56.6005 45.4196 58.481C53.4704 61.8095 63.6836 63.8628 74.8608 63.9869C86.9184 64.0707 97.6616 62.0275 106.024 58.6533C114.205 55.3521 119.937 50.8505 122.545 45.9909Z" fill="#663CEE"/>
<path fill-rule="evenodd" clip-rule="evenodd" d="M171.873 67.1202H181.473V46.4482L181.089 38.5762H181.729L187.169 46.6402L202.977 67.1202H213.217V24.2402H203.617V44.9122L204.065 53.5522H203.361L197.473 44.5282L182.113 24.2402H171.873V67.1202ZM415.723 67.1202H406.123V24.2402H416.363L431.723 44.5282L437.611 53.5522H438.315L437.867 44.9122V24.2402H447.467V67.1202H437.227L421.419 46.6402L415.979 38.5762H415.339L415.723 46.4482V67.1202ZM656.248 67.1202H665.848V55.5362H673.208L681.208 67.1202H692.536L681.016 50.5442L692.728 35.0562H681.336L673.144 46.9602H665.848V24.2402H656.248V67.1202ZM622.436 67.12H632.036V48.56C632.036 44.528 633.572 42.544 637.86 42.544C641.764 42.544 643.172 44.08 643.172 47.6V50.928H652.772V45.616C652.772 39.344 649.828 34.416 642.66 34.416C636.196 34.416 632.804 38.384 631.908 43.568H631.332V35.056H622.436V67.12ZM600.21 67.76C589.266 67.76 581.906 61.232 581.906 51.12C581.906 40.88 589.266 34.416 600.21 34.416C611.154 34.416 618.514 40.88 618.514 51.12C618.514 61.232 611.154 67.76 600.21 67.76ZM600.21 59.248C606.674 59.248 608.978 56.752 608.978 51.12C608.978 45.488 606.674 42.864 600.21 42.864C593.682 42.864 591.442 45.488 591.442 51.12C591.442 56.752 593.682 59.248 600.21 59.248ZM530.956 67.1202H542.923L548.492 51.6962L550.923 42.8642H551.628L553.996 51.6962L559.5 67.1202H571.467L580.556 35.0562H570.763L567.052 49.7122L565.643 59.6962H565.004L562.444 48.7522L557.643 35.0562H545.292L540.427 48.7522L537.867 59.6962H537.228L535.884 49.7122L532.108 35.0562H522.188L530.956 67.1202ZM500.536 67.12H490.936V35.056H499.832V43.568H500.408C501.304 38.384 504.696 34.416 511.16 34.416C518.328 34.416 521.272 39.344 521.272 45.616V50.928H511.672V47.6C511.672 44.08 510.264 42.544 506.36 42.544C502.072 42.544 500.536 44.528 500.536 48.56V67.12ZM451.6 51.12C451.6 62.512 458.896 67.76 469.584 67.76C479.76 67.76 486.544 62.896 486.544 55.92V55.216H476.944V55.856C476.944 58.608 474.96 60.08 469.264 60.08C463.056 60.08 460.752 57.968 460.496 53.04H486.608C486.625 52.893 486.642 52.7506 486.659 52.6115L486.664 52.5722L486.666 52.5521L486.668 52.5419L486.668 52.5413C486.773 51.6812 486.864 50.938 486.864 49.968C486.864 39.92 479.888 34.416 469.392 34.416C458.832 34.416 451.6 40.88 451.6 51.12ZM460.624 47.984C461.072 43.824 463.504 41.904 469.2 41.904C474.832 41.904 477.392 43.76 477.648 47.984H460.624ZM359.734 56.112C359.734 63.536 365.686 67.76 376.502 67.76C386.422 67.76 392.374 63.792 392.374 57.776C392.374 52.464 389.174 49.584 380.598 48.624L373.75 47.792C369.526 47.28 368.63 46.576 368.63 44.912C368.63 42.864 369.846 42.032 374.646 42.032C380.534 42.032 381.814 43.376 381.814 46V46.384H391.414V46.192C391.414 38.384 385.462 34.416 374.966 34.416C363.958 34.416 359.158 38.896 359.158 44.528C359.158 49.904 362.742 52.784 369.142 53.488L378.166 54.576C381.942 55.088 382.902 55.6 382.902 57.392C382.902 59.312 381.686 60.144 376.566 60.144C371.126 60.144 369.334 59.376 369.334 56.496V55.92H359.734V56.112ZM338.085 67.76C327.141 67.76 319.781 61.232 319.781 51.12C319.781 40.88 327.141 34.416 338.085 34.416C349.029 34.416 356.389 40.88 356.389 51.12C356.389 61.232 349.029 67.76 338.085 67.76ZM338.085 59.248C344.549 59.248 346.853 56.752 346.853 51.12C346.853 45.488 344.549 42.864 338.085 42.864C331.557 42.864 329.317 45.488 329.317 51.12C329.317 56.752 331.557 59.248 338.085 59.248ZM257.623 67.12H267.223V50.928C267.223 45.36 268.887 43.056 274.711 43.056C280.215 43.056 282.071 45.04 282.071 50.352V67.12H291.671V50.928C291.671 45.36 293.335 43.056 299.159 43.056C304.663 43.056 306.519 45.04 306.519 50.352V67.12H316.119V47.152C316.119 39.856 312.087 34.416 303.831 34.416C295.575 34.416 292.311 39.472 291.543 44.912H290.967C290.263 38.96 286.487 34.416 279.063 34.416C270.999 34.416 267.799 39.408 267.031 44.784H266.519V35.056H257.623V67.12ZM235.398 67.76C224.454 67.76 217.094 61.232 217.094 51.12C217.094 40.88 224.454 34.416 235.398 34.416C246.342 34.416 253.702 40.88 253.702 51.12C253.702 61.232 246.342 67.76 235.398 67.76ZM235.398 59.248C241.862 59.248 244.166 56.752 244.166 51.12C244.166 45.488 241.862 42.864 235.398 42.864C228.87 42.864 226.63 45.488 226.63 51.12C226.63 56.752 228.87 59.248 235.398 59.248Z" fill="#1D1D1D"/>
</svg>
