<svg width="110" height="110" viewBox="0 0 110 110" fill="none" xmlns="http://www.w3.org/2000/svg">
<path fill-rule="evenodd" clip-rule="evenodd" d="M71.9768 56.7699C71.5026 56.7699 71.1186 57.1543 71.1186 57.6281V78.2624C71.1186 80.2865 70.3144 82.2273 68.8832 83.6586C67.4519 85.0898 65.5111 85.894 63.487 85.894H44.3107C43.8365 85.894 43.4521 86.278 43.4521 86.7522V88.3811C43.4521 90.5095 44.2975 92.5508 45.8029 94.0558C47.3079 95.5608 49.3489 96.4062 51.4772 96.4062H69.0356C69.4175 96.4062 69.7883 96.5343 70.0886 96.77L78.468 103.342C78.4865 103.357 78.5063 103.371 78.5261 103.384C79.4044 103.962 80.5292 104.011 81.4549 103.512C82.3802 103.012 82.9574 102.046 82.9574 100.994V98.1126C82.9574 97.6603 83.137 97.226 83.4571 96.9059C83.7772 96.5858 84.2111 96.4062 84.6638 96.4062H89.9484C92.0767 96.4062 94.1181 95.5608 95.6231 94.0558C97.128 92.5508 97.9734 90.5095 97.9734 88.3811C97.9734 81.6238 97.9734 71.5524 97.9734 64.795C97.9734 62.6667 97.128 60.6253 95.6231 59.1203C94.1181 57.6153 92.0767 56.7699 89.9484 56.7699H71.9768Z" fill="#605DEC"/>
<path fill-rule="evenodd" clip-rule="evenodd" d="M74.5418 56.7699H71.9768C71.5026 56.7699 71.1186 57.1543 71.1186 57.6281V78.2624C71.1186 80.2865 70.3144 82.2273 68.8832 83.6586C67.4519 85.0898 65.5111 85.894 63.487 85.894H44.3107C43.8365 85.894 43.4521 86.278 43.4521 86.7522V88.3811C43.4521 90.5095 44.2975 92.5508 45.8029 94.0558C45.9496 94.2025 46.1012 94.343 46.2582 94.4769H65.2037C67.6826 94.4769 70.0606 93.4922 71.8136 91.7388C73.5666 89.9858 74.5517 87.6083 74.5517 85.1289C74.5517 77.1245 74.5517 65.1938 74.5517 57.1893C74.5517 57.0493 74.5484 56.9096 74.5418 56.7699Z" fill="#605DEC"/>
<path fill-rule="evenodd" clip-rule="evenodd" d="M70.7871 80.5119C70.4241 81.6894 69.7781 82.7721 68.8911 83.6587C67.4599 85.0899 65.519 85.8941 63.4949 85.8941H55.5873L55.4349 85.9539C55.3846 85.9736 55.3364 85.9979 55.2907 86.0268L44.7278 92.7096C45.0368 93.1924 45.3989 93.6444 45.8109 94.056C47.3159 95.5609 49.3568 96.4063 51.4852 96.4063H69.0435C69.4255 96.4063 69.7962 96.5345 70.0966 96.7701L78.4759 103.342C78.4945 103.357 78.5143 103.371 78.534 103.384C79.4124 103.962 80.5371 104.011 81.4628 103.512C82.3882 103.013 82.9653 102.046 82.9653 100.995V98.1128C82.9653 97.6604 83.145 97.2262 83.4651 96.9061C83.7852 96.586 84.219 96.4063 84.6718 96.4063H89.9563C92.0846 96.4063 94.126 95.5609 95.631 94.056C96.0426 93.6444 96.4047 93.1924 96.7141 92.7096L76.9718 80.2203C76.7584 80.0851 76.5417 79.9578 76.3221 79.8379C76.1268 79.7312 75.8973 79.7049 75.6827 79.7638C74.277 80.151 72.8363 80.3706 71.3906 80.4225C71.246 80.4275 71.0417 80.4584 70.7871 80.5119V80.5119Z" fill="#8583FD"/>
<path fill-rule="evenodd" clip-rule="evenodd" d="M74.5596 80.036C73.514 80.2556 72.4535 80.3841 71.3906 80.4224C71.246 80.4274 71.0417 80.4583 70.7871 80.5119C70.4241 81.6893 69.7781 82.772 68.8911 83.6586C67.4599 85.0898 65.519 85.894 63.4949 85.894H55.5873L55.2907 86.0267L44.7278 92.7095C45.0368 93.1923 45.3989 93.6443 45.8109 94.0559C45.9576 94.2025 46.1092 94.343 46.2661 94.4769H65.2117C67.6906 94.4769 70.0686 93.4923 71.8216 91.7389C73.5746 89.9859 74.5596 87.6083 74.5596 85.129V80.036Z" fill="#605DEC"/>
<path fill-rule="evenodd" clip-rule="evenodd" d="M71.9889 56.7699C71.5147 56.7699 71.1307 57.1543 71.1307 57.6281V78.2624C71.1307 79.1984 70.9585 80.1163 70.6322 80.9745C70.53 81.2435 70.5692 81.5459 70.7368 81.7795C70.9041 82.0135 71.1781 82.1478 71.4656 82.1375C75.0029 82.0094 78.5147 80.9609 81.626 78.9924L97.5859 68.8959C97.8347 68.7385 97.9855 68.4645 97.9855 68.1704V64.795C97.9855 62.6667 97.1401 60.6253 95.6352 59.1203C94.1302 57.6153 92.0888 56.7699 89.9605 56.7699H71.9889Z" fill="#E0DFFF"/>
<path fill-rule="evenodd" clip-rule="evenodd" d="M74.5543 56.7699H71.9889C71.5147 56.7699 71.1307 57.1543 71.1307 57.6281V78.2624C71.1307 79.1984 70.9585 80.1163 70.6322 80.9745C70.53 81.2435 70.5692 81.5459 70.7368 81.7795C70.9041 82.0135 71.1781 82.1478 71.4656 82.1375C72.5038 82.1 73.5396 81.983 74.5638 81.7865V57.1893C74.5638 57.0493 74.5605 56.9096 74.5543 56.7699Z" fill="#8583FD"/>
<path fill-rule="evenodd" clip-rule="evenodd" d="M71.5304 45.5391C71.4142 45.3438 71.2255 45.2029 71.0055 45.1465L68.4191 44.4865C68.1352 44.414 67.9371 44.1586 67.9371 43.8656C67.9371 43.6963 68.003 43.5394 68.1138 43.4232C68.2988 43.2291 68.3824 42.9593 68.3396 42.6944C68.2967 42.4295 68.1328 42.2 67.8959 42.0739C66.5548 41.3595 65.0474 40.9756 63.5 40.9756C51.5462 40.9756 29.882 40.9756 17.9283 40.9756C15.4489 40.9756 13.0714 41.9606 11.3184 43.7136C9.56497 45.467 8.58032 47.8446 8.58032 50.3239C8.58032 58.328 8.58032 70.2591 8.58032 78.2631C8.58032 80.7424 9.56497 83.12 11.3184 84.8734C13.0714 86.6264 15.4489 87.611 17.9283 87.611H24.188C24.7664 87.611 25.3209 87.8409 25.7296 88.2496C26.1383 88.6587 26.3682 89.2128 26.3682 89.7913V93.2046C26.3682 94.3919 27.0195 95.4837 28.0647 96.0469C29.1095 96.6104 30.3797 96.5552 31.3717 95.9027C31.3915 95.8899 31.4109 95.8759 31.4298 95.861C31.4298 95.861 38.8381 90.0504 41.3554 88.0758C41.7393 87.775 42.2131 87.611 42.7009 87.611H63.5C65.9793 87.611 68.3569 86.6264 70.1099 84.8734C71.8633 83.12 72.8479 80.7424 72.8479 78.2631C72.8479 70.2591 72.8479 58.328 72.8479 50.3239C72.8479 48.6249 72.3857 46.9741 71.5304 45.5391V45.5391Z" fill="#605DEC"/>
<path fill-rule="evenodd" clip-rule="evenodd" d="M10.1379 83.4382C10.4787 83.9507 10.8713 84.4315 11.3129 84.8731C13.0659 86.6261 15.4435 87.6108 17.9228 87.6108H24.1825C24.7609 87.6108 25.3155 87.8407 25.7242 88.2494C26.1328 88.6585 26.3627 89.2126 26.3627 89.791V93.2043C26.3627 94.3917 27.0141 95.4834 28.0593 96.0466C29.1041 96.6102 30.3742 96.555 31.3663 95.9024C31.3861 95.8896 31.4054 95.8756 31.4244 95.8608C31.4244 95.8608 38.8327 90.0502 41.3499 88.0755C41.7339 87.7748 42.2077 87.6108 42.6955 87.6108H63.4945C65.9739 87.6108 68.3514 86.6261 70.1044 84.8731C70.5461 84.4315 70.9387 83.9507 71.2794 83.4382L48.029 68.7295C47.7789 68.5717 47.5252 68.4222 47.2681 68.2817C47.0724 68.175 46.8433 68.1486 46.6287 68.2075C42.756 69.2746 38.6605 69.2746 34.7887 68.2075C34.574 68.1486 34.3449 68.175 34.1493 68.2817C33.8922 68.4222 33.6384 68.5717 33.3883 68.7295L10.1379 83.4382V83.4382Z" fill="#8583FD"/>
<path fill-rule="evenodd" clip-rule="evenodd" d="M71.5304 45.5391C71.4142 45.3439 71.2255 45.203 71.0055 45.1465L68.4191 44.4865C68.1352 44.414 67.9371 44.1586 67.9371 43.8656C67.9371 43.6963 68.003 43.5394 68.1138 43.4232C68.2988 43.2291 68.3824 42.9593 68.3396 42.6944C68.2967 42.4295 68.1328 42.2 67.8959 42.0739C66.5548 41.3595 65.0474 40.9756 63.5 40.9756C51.5462 40.9756 29.882 40.9756 17.9283 40.9756C15.4489 40.9756 13.0714 41.9606 11.3184 43.7136C9.56497 45.467 8.58032 47.8446 8.58032 50.3239V54.3222C8.58032 54.6164 8.73111 54.89 8.97954 55.0473L27.8855 67.0077C35.7198 71.9639 45.7084 71.9639 53.5427 67.0077L72.4487 55.0473C72.6971 54.89 72.8479 54.6164 72.8479 54.3222V50.3239C72.8479 48.6249 72.3857 46.9741 71.5304 45.5391V45.5391Z" fill="#E0DFFF"/>
<path fill-rule="evenodd" clip-rule="evenodd" d="M79.5477 34.5884C79.2811 33.5445 78.3406 32.814 77.2632 32.814C76.1859 32.814 75.2458 33.5445 74.9792 34.5884L73.9612 38.5756C73.7119 39.552 72.9498 40.3142 71.9738 40.5635L67.9866 41.5811C66.9426 41.8476 66.2122 42.7878 66.2122 43.8655C66.2122 44.9429 66.9426 45.883 67.9866 46.1496L71.9738 47.1672C72.9498 47.4164 73.7119 48.179 73.9612 49.155L74.9792 53.1422C75.2458 54.1862 76.1859 54.9166 77.2632 54.9166C78.3406 54.9166 79.2811 54.1862 79.5477 53.1422L80.5653 49.155C80.8146 48.179 81.5767 47.4164 82.5527 47.1676C82.5531 47.1672 86.5403 46.1496 86.5403 46.1496C87.5843 45.883 88.3147 44.9429 88.3147 43.8655C88.3147 42.7878 87.5843 41.8476 86.5403 41.5811L82.5531 40.5635C81.5767 40.3142 80.8146 39.552 80.5653 38.5756L79.5477 34.5884V34.5884Z" fill="#605DEC"/>
<path fill-rule="evenodd" clip-rule="evenodd" d="M67.3679 20.2227C67.1034 19.1865 66.1698 18.4615 65.1003 18.4615C64.0308 18.4615 63.0977 19.1865 62.8332 20.2227L61.8271 24.1637C61.5816 25.1249 60.8309 25.8755 59.8698 26.1211L55.9287 27.1272C54.8926 27.3916 54.1675 28.3248 54.1675 29.3943C54.1675 30.4638 54.8926 31.3974 55.9287 31.6619L59.8698 32.6675C60.8309 32.9131 61.5816 33.6637 61.8271 34.6249C61.8271 34.6253 62.8332 38.5659 62.8332 38.5659C63.0977 39.6021 64.0308 40.3272 65.1003 40.3272C66.1698 40.3272 67.1034 39.6021 67.3679 38.5659L68.3735 34.6253C68.6191 33.6637 69.3697 32.9131 70.3309 32.6679C70.3313 32.6675 74.2719 31.6619 74.2719 31.6619C75.3081 31.3974 76.0332 30.4638 76.0332 29.3943C76.0332 28.3248 75.3081 27.3916 74.2719 27.1272L70.3313 26.1211C69.3697 25.8755 68.6191 25.1249 68.3735 24.1637L67.3679 20.2227V20.2227Z" fill="#8583FD"/>
<path fill-rule="evenodd" clip-rule="evenodd" d="M89.0355 8.23362C88.7014 6.92433 87.5218 6.00807 86.1709 6.00807C84.8196 6.00807 83.6401 6.92433 83.306 8.23362L81.8818 13.814C81.5019 15.302 80.3401 16.4638 78.852 16.8437L73.2717 18.2679C71.9624 18.602 71.0461 19.7816 71.0461 21.1329C71.0461 22.4838 71.9624 23.6633 73.2717 23.9974L78.852 25.422C80.3401 25.8019 81.5019 26.9633 81.8818 28.4514L83.306 34.0317C83.6401 35.341 84.8196 36.2572 86.1709 36.2572C87.5218 36.2572 88.7014 35.341 89.0355 34.0317L90.4601 28.4514C90.84 26.9633 92.0013 25.8019 93.4894 25.422L99.0698 23.9974C100.379 23.6633 101.295 22.4838 101.295 21.1329C101.295 19.7816 100.379 18.602 99.0698 18.2679L93.4894 16.8437C92.0013 16.4638 90.84 15.302 90.4601 13.814L89.0355 8.23362V8.23362Z" fill="#E0DFFF"/>
</svg>
